<svg xmlns="http://www.w3.org/2000/svg" width="14" height="14" fill="none" viewBox="0 0 14 14"><path fill="#fff" fill-rule="evenodd" d="M2.84 1.402c-.124 0-.244.014-.357.04a3.041 3.041 0 0 0-.595-.887C1.492.157.866 0 0 0v1.4c.529 0 .833.076.902.145.263.265.493.802.493 1.255l.007.099.683 4.801C.942 7.76.055 8.651.001 9.765L0 10.5c.068 1.15.95 2.036 2.053 2.099h.158A2.094 2.094 0 0 0 4.185 14c.911 0 1.686-.584 1.973-1.4h1.634A2.094 2.094 0 0 0 9.765 14c1.156 0 2.092-.94 2.092-2.1 0-1.16-.936-2.1-2.092-2.1-.911 0-1.686.584-1.973 1.4H6.158a2.094 2.094 0 0 0-1.973-1.4c-.911 0-1.686.584-1.973 1.4h-.12c-.355-.021-.674-.341-.698-.742l.001-.658c.019-.363.336-.681.732-.7h8.417l.103-.033A1.834 1.834 0 0 0 11.8 7.982l.073-.146.239-.475.735-1.464c.59-1.178.96-1.927 1.042-2.11.422-.945-.432-1.671-1.306-1.687L2.84 1.402ZM10.302 7.7H3.566a.119.119 0 0 1-.085-.098l-.684-4.801 9.684.695c-.17.347-.478.967-.881 1.772l-.01.02-.724 1.443-.238.474-.09.18-.034.079a.437.437 0 0 1-.202.236Zm-.537 4.9a.699.699 0 0 0 .697-.7c0-.387-.312-.7-.697-.7a.699.699 0 0 0-.697.7c0 .387.312.7.697.7Zm-4.883-.7c0 .387-.312.7-.697.7a.699.699 0 0 1-.697-.7c0-.387.312-.7.697-.7.385 0 .698.313.698.7Z" clip-rule="evenodd"/></svg>