<svg xmlns="http://www.w3.org/2000/svg" width="90" height="90" fill="none" viewBox="0 0 90 90"><path fill="#fff" d="M72.023 33.76h-5.426l1.635-18.77c.003-.034.003-.067.003-.1V14.88c0-.511-.308-.961-.76-1.157l-.012-.006a1.186 1.186 0 0 0-.087-.031c-.01-.004-.02-.008-.032-.011-.024-.008-.048-.014-.073-.02-.017-.003-.033-.008-.05-.012l-.066-.01-.062-.008-.01-.002c-.022-.002-.044-.001-.066-.002l-.044-.002H41.136a1.263 1.263 0 0 0 0 2.525h24.46L63.085 44.99v.007l-.634 7.279H18.58l.734-7.575h8.353a1.262 1.262 0 1 0 0-2.525H19.56l1.549-15.99h13.294a1.262 1.262 0 1 0 0-2.525h-13.05l.73-7.518h14.003c.695 0 1.263-.567 1.263-1.263 0-.697-.568-1.262-1.263-1.262H20.935c-.593 0-1.108.417-1.232.996l-.003.012c-.007.032-.011.064-.015.096l-.005.03v.007l-.863 8.902H3.512a1.262 1.262 0 1 0 0 2.525h15.06l-1.55 15.99H12.52a1.262 1.262 0 1 0 0 2.525h4.26l-.844 8.706v.004L14.63 66.875v.005l-.001.005c-.002.017-.002.034-.003.052 0 .023-.003.046-.003.07v.003c0 .032.002.064.005.096a1.202 1.202 0 0 0 .017.128l.004.028c.005.024.012.048.018.071l.013.05.005.014c.06.188.165.356.3.494l.007.008.042.038c.087.08.186.148.293.2l.067.033.022.008c.031.012.063.025.096.035l.009.002c.037.011.075.021.114.029l.015.002c.037.007.073.013.11.017h.003c.042.004.083.006.123.006h5.622c.621 4.705 4.655 8.35 9.528 8.35 4.872 0 8.906-3.645 9.526-8.35h20.25c.621 4.705 4.655 8.35 9.527 8.35 4.872 0 8.907-3.645 9.527-8.35h5.625c.042 0 .083-.002.124-.006l.022-.003c.033-.004.066-.009.097-.015l.041-.01c.025-.005.05-.012.074-.019l.049-.016c.02-.007.041-.014.062-.023l.05-.022a1.558 1.558 0 0 0 .157-.085l.047-.031.05-.037.042-.034.05-.045.034-.033c.018-.018.034-.037.051-.056l.027-.03.052-.07.018-.025a1.273 1.273 0 0 0 .113-.21c.005-.01.008-.02.012-.031l.03-.08.014-.053.016-.063.01-.058.009-.051c.053-.43 1.042-8.36 1.483-13.49l.002-.014c.127-1.479.208-2.724.208-3.486 0-9.05-7.362-16.412-16.412-16.412Zm-5.646 2.526h5.165l-.66 7.574h-5.165l.66-7.574ZM31.036 74.094a7.096 7.096 0 0 1-7.088-7.088c0-3.908 3.18-7.087 7.088-7.087a7.095 7.095 0 0 1 7.087 7.087 7.095 7.095 0 0 1-7.087 7.088Zm39.303 0a7.095 7.095 0 0 1-7.087-7.088c0-3.908 3.18-7.087 7.087-7.087a7.096 7.096 0 0 1 7.088 7.087 7.095 7.095 0 0 1-7.088 7.088Zm14.033-8.35h-4.505c-.62-4.706-4.655-8.351-9.528-8.351-4.872 0-8.906 3.645-9.526 8.35h-20.25c-.62-4.705-4.655-8.35-9.527-8.35-4.872 0-8.907 3.645-9.527 8.35h-4.233l1.06-10.942H63.609c.043 0 .085-.002.126-.006.008 0 .015-.002.023-.003.033-.004.066-.009.098-.015l.042-.01c.025-.006.05-.012.075-.02.017-.005.032-.01.049-.017l.063-.022.052-.024a1.23 1.23 0 0 0 .055-.026l.051-.03.051-.03c.017-.01.032-.022.048-.033a1.245 1.245 0 0 0 .22-.202l.034-.04a1.27 1.27 0 0 0 .105-.154l.025-.045.03-.06c.007-.016.014-.032.02-.05.01-.02.016-.04.023-.06l.019-.054.015-.06.014-.06.01-.06.008-.063v-.009l.634-7.263h6.524c3.868 0 5.613 2.004 7.46 4.126 1.524 1.75 3.225 3.704 6.117 4.18-.367 3.884-.961 8.87-1.227 11.052Zm1.443-13.582c-1.876-.383-3.03-1.702-4.429-3.308-1.749-2.01-3.883-4.461-7.976-4.918l.653-7.499c6.694.99 11.847 6.772 11.847 13.736 0 .474-.035 1.161-.095 1.989Z"/><path fill="#fff" d="M31.036 62.377a4.634 4.634 0 0 0-4.63 4.63 4.634 4.634 0 0 0 4.63 4.628 4.634 4.634 0 0 0 4.63-4.629 4.634 4.634 0 0 0-4.63-4.629Zm0 6.733a2.106 2.106 0 0 1-2.104-2.104c0-1.16.944-2.104 2.104-2.104 1.16 0 2.104.944 2.104 2.104 0 1.16-.944 2.104-2.104 2.104ZM70.34 62.377a4.634 4.634 0 0 0-4.63 4.63 4.634 4.634 0 0 0 4.63 4.628 4.634 4.634 0 0 0 4.628-4.629 4.634 4.634 0 0 0-4.629-4.629Zm0 6.733a2.106 2.106 0 0 1-2.105-2.104c0-1.16.944-2.104 2.104-2.104 1.16 0 2.104.944 2.104 2.104 0 1.16-.944 2.104-2.104 2.104ZM14.201 33.761H8.03a1.262 1.262 0 1 0 0 2.525h6.172a1.262 1.262 0 1 0 0-2.525Z"/></svg>