<svg xmlns="http://www.w3.org/2000/svg" width="70" height="70" fill="none" viewBox="0 0 70 70"><mask id="a" width="70" height="70" x="0" y="0" maskUnits="userSpaceOnUse" style="mask-type:alpha"><path fill="#C4C4C4" d="M0 0h70v70H0z"/></mask><g mask="url(#a)"><path fill="#EE3643" d="m22.213-23 70.71 70.71-21.212 21.214L1-1.787z"/><path fill="#fff" d="m35.925 14.77.544-1.634-.05-.05-.93 1.248-3.613 3.613-1.287-1.287 6.979-6.98.99.99-1.07 6.317-.534 1.584.05.05.9-1.219 3.644-3.643 1.287 1.287-6.98 6.98-.99-.99 1.06-6.267Zm9.514 2.88 4.108 4.11-1.207 1.207-2.753-2.752-1.613 1.613 2.504 2.505-1.207 1.208-2.505-2.505-1.693 1.693 2.802 2.802-1.208 1.207-4.158-4.158 6.93-6.93Zm4.517 12.26-1.099 1.356.04.04 1.386-1.11 5.059-2.643.89.891-2.682 5.059-1.09 1.366.04.04 1.396-1.1L58.59 30.8l1.376 1.376-8.89 5.069-.91-.91 2.613-5.09.89-1.227-.049-.05-1.237.902-5.069 2.613-.96-.96 5.078-8.88 1.475 1.475-2.95 4.792Z"/></g></svg>